<svg version="1.1" id="Layer_1" xmlns="http://www.w3.org/2000/svg" xmlns:xlink="http://www.w3.org/1999/xlink" x="0px" y="0px"
	 width="100%" viewBox="0 0 337 165" enable-background="new 0 0 337 165" xml:space="preserve">
<path fill="#0F182A" opacity="1.000000" stroke="none" 
	d="
M225.000000,166.000000 
	C150.000015,166.000000 75.500015,166.000000 1.000020,166.000000 
	C1.000013,111.000015 1.000013,56.000031 1.000007,1.000035 
	C113.333305,1.000023 225.666611,1.000023 337.999939,1.000012 
	C337.999939,55.999966 337.999939,110.999931 337.999969,165.999939 
	C300.500000,166.000000 263.000000,166.000000 225.000000,166.000000 
M248.089447,95.509811 
	C248.395813,95.622704 248.702179,95.735596 249.876999,95.959702 
	C251.916962,95.916580 253.956909,95.873459 256.921783,95.958549 
	C261.614044,95.915855 266.306305,95.873161 271.924835,95.958145 
	C276.948517,95.915489 281.972229,95.872826 287.920013,95.956810 
	C292.316528,95.958221 296.713013,95.959625 301.419037,96.783447 
	C301.548065,99.553474 301.677063,102.323502 301.578003,105.891060 
	C301.525421,107.266838 301.472809,108.642624 301.160187,110.675140 
	C300.147003,118.467361 298.292023,125.621750 288.863922,127.145134 
	C287.564056,127.355164 286.289551,127.722260 284.066254,127.989914 
	C277.715820,128.245361 271.365387,128.500809 264.101471,128.527222 
	C258.054047,128.601791 252.006638,128.676361 245.054901,128.521347 
	C238.369888,128.469864 231.684875,128.418381 224.229050,128.202118 
	C218.853455,127.449913 213.477875,126.697716 207.590317,125.458984 
	C202.126129,124.058113 201.623367,118.803131 199.346313,114.051537 
	C198.579285,108.027122 197.812271,102.002701 197.224152,95.066078 
	C197.112915,90.708290 197.001663,86.350510 197.087601,81.111839 
	C197.074966,78.410065 197.062332,75.708298 197.287155,72.642517 
	C197.225998,72.085747 197.164841,71.528969 197.117355,70.098991 
	C197.041763,68.065536 196.966171,66.032082 197.059326,63.219795 
	C197.900253,60.244343 198.854355,57.295364 199.557922,54.287781 
	C200.913910,48.491306 204.415482,44.572464 209.941879,42.681488 
	C212.518433,41.799862 215.356339,41.681953 218.984299,41.385498 
	C223.322510,41.201050 227.660706,41.016602 232.927917,40.959442 
	C238.946320,40.894878 244.964722,40.830318 251.911774,40.915611 
	C258.940125,40.893078 265.968506,40.870541 273.857330,40.992119 
	C281.198578,42.070709 288.539825,43.149300 296.245148,44.813530 
	C297.471954,48.321026 299.456177,51.760170 299.780090,55.349148 
	C300.665314,65.158661 300.388214,65.183899 310.465271,64.710205 
	C310.630005,64.702469 310.793274,64.663925 311.848022,64.806381 
	C320.259460,64.989914 320.307922,64.987480 319.895874,56.781979 
	C319.782043,54.515289 319.285919,52.267796 319.016541,49.201405 
	C317.902954,41.403164 315.580139,34.310093 307.387573,29.864479 
	C299.924774,28.034550 292.461975,26.204620 284.084198,24.179249 
	C277.052521,24.038734 270.020874,23.898220 262.079468,23.527143 
	C256.059113,23.600319 250.038773,23.673494 243.144058,23.505650 
	C239.096832,23.636948 235.049606,23.768248 230.103210,23.742575 
	C225.734955,24.215168 221.366699,24.687761 216.097046,25.028408 
	C194.455551,23.604315 179.353073,38.622879 178.587982,62.777012 
	C178.391953,68.184776 178.195908,73.592545 177.779694,79.728554 
	C177.835236,80.480568 177.890793,81.232574 177.708664,82.580643 
	C177.790817,84.059235 177.872986,85.537834 177.766449,87.842560 
	C177.872299,90.314354 177.978149,92.786148 177.919296,96.000595 
	C178.417862,100.998802 178.916412,105.997002 179.343964,111.774475 
	C180.776901,116.560074 182.209839,121.345665 183.769058,126.840736 
	C186.487350,132.265106 190.032486,136.887497 196.335709,139.794250 
	C202.222443,141.434097 208.109177,143.073944 214.838257,144.919098 
	C221.222305,145.200333 227.606354,145.481567 234.919495,145.901459 
	C240.944733,145.855240 246.969971,145.809021 253.923340,145.900238 
	C259.942474,145.831604 265.961578,145.762970 272.861786,145.832504 
	C277.571960,145.441437 282.282166,145.050354 287.798645,144.750229 
	C310.032349,141.648926 319.175293,132.203018 320.633179,110.329414 
	C320.867615,101.136490 321.150482,91.944221 321.273224,82.749802 
	C321.287994,81.642258 320.436127,80.523140 319.143372,79.235649 
	C317.428925,79.284081 315.714478,79.332512 313.076874,79.229980 
	C308.047119,79.280769 303.017365,79.331558 297.068085,79.229546 
	C292.378387,79.279633 287.688721,79.329720 282.076263,79.227097 
	C277.050842,79.278618 272.025421,79.330139 266.074677,79.227188 
	C261.312805,79.206200 256.545776,79.312042 251.790894,79.118721 
	C248.726013,78.994110 247.715073,80.277748 247.852509,83.180847 
	C248.038666,87.113136 248.000687,91.056046 248.089447,95.509811 
M139.884781,45.913555 
	C139.953735,52.273258 140.022690,58.632965 139.869049,65.878624 
	C139.869049,68.788841 139.869049,71.699059 139.869049,75.371712 
	C133.753159,75.371712 128.366318,75.371712 122.055870,75.220024 
	C112.702202,75.274483 103.348526,75.328941 93.071091,75.218826 
	C85.709351,75.273682 78.347618,75.328537 70.063866,75.215965 
	C62.039894,75.270874 54.015926,75.325783 45.145821,75.209999 
	C44.144768,74.111504 42.385468,73.082909 42.276604,71.902153 
	C41.851631,67.292770 41.949070,62.635227 42.064857,57.080147 
	C41.994484,50.385708 41.924110,43.691265 42.069515,36.097424 
	C42.069515,32.856953 42.069515,29.616478 42.069515,26.369061 
	C35.223946,26.369061 29.150948,26.369061 22.955221,26.369061 
	C22.955221,34.459637 22.955221,42.231491 22.699705,50.909843 
	C22.784079,57.608082 22.868450,64.306320 22.698814,71.911507 
	C22.767939,79.266502 22.837065,86.621490 22.638300,94.749756 
	C22.638300,110.812080 22.638300,126.874405 22.638300,143.202911 
	C29.353354,143.202911 35.529194,143.202911 41.869576,143.202911 
	C41.869576,133.184677 41.869576,123.585762 42.062130,113.068634 
	C42.062130,106.185944 42.062130,99.303246 42.062130,91.761307 
	C48.515877,91.761307 54.253273,91.761307 60.918209,91.914055 
	C67.943077,91.863235 74.967949,91.812424 82.920059,91.913795 
	C92.606918,91.865448 102.293785,91.817101 112.908134,91.924843 
	C118.938507,91.874214 124.968880,91.823578 131.881973,91.911995 
	C134.868179,92.782494 139.960831,89.413055 139.895157,96.913162 
	C139.965286,102.274879 140.035416,107.636604 139.893921,113.914963 
	C139.957428,120.607666 140.020935,127.300369 139.869278,134.877365 
	C139.851791,136.875000 139.587769,138.914764 139.918961,140.852814 
	C140.089233,141.849304 141.290710,143.410126 142.077530,143.441818 
	C147.657822,143.666626 153.251404,143.561493 159.056961,143.561493 
	C159.056961,125.861816 159.056961,108.924202 159.243484,91.102020 
	C159.163681,88.401314 159.083893,85.700600 159.223389,82.085236 
	C159.157913,76.056190 159.092422,70.027153 159.251572,63.094700 
	C159.174500,59.063133 159.097412,55.031570 159.231186,50.083832 
	C159.156433,44.055904 159.081696,38.027977 159.231964,31.129215 
	C159.155258,29.556925 159.078552,27.984636 159.000916,26.393200 
	C152.412979,26.393200 146.364746,26.393200 140.102921,26.393200 
	C140.102921,32.819817 140.102921,38.909225 139.884781,45.913555 
z"/>
<path fill="#5AC3D5" opacity="1.000000" stroke="none" 
	d="
M45.991955,75.380692 
	C54.015926,75.325783 62.039894,75.270874 70.479630,75.639175 
	C68.870575,78.934525 66.831818,81.796989 64.825317,84.681877 
	C63.193714,87.027733 61.600761,89.400482 59.990669,91.761307 
	C54.253273,91.761307 48.515877,91.761307 42.062130,91.761307 
	C42.062130,99.303246 42.062130,106.185944 41.618454,113.568787 
	C37.548740,117.118034 33.942207,120.190773 30.287333,123.204903 
	C28.769018,124.457024 27.147484,125.583984 25.572889,126.767868 
	C25.047859,126.533882 24.522829,126.299896 23.997799,126.065910 
	C23.997799,116.713211 23.997799,107.360504 24.324902,97.909462 
	C31.453577,91.270050 38.280540,84.754852 45.014782,78.145187 
	C45.641354,77.530205 45.680214,76.316437 45.991955,75.380692 
z"/>
<path fill="#4658C5" opacity="1.000000" stroke="none" 
	d="
M286.992340,144.659271 
	C282.282166,145.050354 277.571960,145.441437 272.469391,145.427948 
	C274.436157,142.133255 276.871643,139.301270 279.131927,136.335754 
	C281.188019,133.638138 283.053711,130.795410 285.003326,128.016647 
	C286.289551,127.722260 287.564056,127.355164 288.863922,127.145134 
	C298.292023,125.621750 300.147003,118.467361 301.694611,110.313858 
	C303.570129,109.364410 305.148010,109.053970 306.215027,108.144310 
	C315.037598,100.622948 323.435303,92.833000 319.985931,79.409393 
	C320.436127,80.523140 321.287994,81.642258 321.273224,82.749802 
	C321.150482,91.944221 320.867615,101.136490 320.136627,110.786133 
	C318.216705,112.076286 316.559082,112.667519 315.407227,113.781670 
	C306.555389,122.343727 297.744019,130.950226 289.085815,139.706802 
	C287.915466,140.890411 287.667450,142.985992 286.992340,144.659271 
z"/>
<path fill="#5298D0" opacity="1.000000" stroke="none" 
	d="
M177.999863,79.000305 
	C178.195908,73.592545 178.391953,68.184776 179.133575,62.374313 
	C181.789825,60.810440 184.281570,60.041595 185.947968,58.423023 
	C195.248856,49.389069 204.404785,40.203011 213.466232,30.928225 
	C215.002289,29.356009 215.838760,27.100286 216.998444,25.160351 
	C221.366699,24.687761 225.734955,24.215168 230.513641,24.183516 
	C229.328629,26.870501 227.814957,29.180561 226.118759,31.347742 
	C223.503448,34.689201 220.763077,37.932781 218.075775,41.217880 
	C215.356339,41.681953 212.518433,41.799862 209.941879,42.681488 
	C204.415482,44.572464 200.913910,48.491306 199.557922,54.287781 
	C198.854355,57.295364 197.900253,60.244343 196.656036,63.710754 
	C192.241409,67.894684 188.324219,71.698273 184.175232,75.229507 
	C182.361115,76.773514 180.072830,77.760422 177.999863,79.000305 
z"/>
<path fill="#53A5CD" opacity="1.000000" stroke="none" 
	d="
M130.999252,91.772949 
	C124.968880,91.823578 118.938507,91.874214 112.462250,91.486435 
	C113.451248,88.761009 114.788719,86.405144 116.344711,84.203735 
	C118.469139,81.198120 120.759987,78.310127 122.979485,75.371712 
	C128.366318,75.371712 133.753159,75.371712 139.869049,75.371712 
	C139.869049,71.699059 139.869049,68.788841 140.329666,65.391350 
	C144.671997,61.626202 148.478317,58.252621 152.467041,55.110592 
	C154.481064,53.524082 156.825363,52.356819 159.020325,51.000000 
	C159.097412,55.031570 159.174500,59.063133 158.781769,63.587135 
	C156.902054,64.863052 155.237503,65.385620 154.123779,66.472572 
	C147.160828,73.268181 140.266464,80.137039 133.491791,87.119789 
	C132.313766,88.334007 131.812897,90.205208 130.999252,91.772949 
z"/>
<path fill="#539DCF" opacity="1.000000" stroke="none" 
	d="
M216.547729,25.094378 
	C215.838760,27.100286 215.002289,29.356009 213.466232,30.928225 
	C204.404785,40.203011 195.248856,49.389069 185.947968,58.423023 
	C184.281570,60.041595 181.789825,60.810440 179.298645,61.986187 
	C179.353073,38.622879 194.455551,23.604315 216.547729,25.094378 
z"/>
<path fill="#56B4CE" opacity="1.000000" stroke="none" 
	d="
M23.997799,98.007805 
	C23.997799,107.360504 23.997799,116.713211 23.997799,126.065910 
	C24.522829,126.299896 25.047859,126.533882 25.572889,126.767868 
	C27.147484,125.583984 28.769018,124.457024 30.287333,123.204903 
	C33.942207,120.190773 37.548740,117.118034 41.522175,114.027893 
	C41.869576,123.585762 41.869576,133.184677 41.869576,143.202911 
	C35.529194,143.202911 29.353354,143.202911 22.638300,143.202911 
	C22.638300,126.874405 22.638300,110.812080 22.970730,94.654327 
	C23.534704,95.708534 23.766251,96.858170 23.997799,98.007805 
z"/>
<path fill="#5CCED6" opacity="1.000000" stroke="none" 
	d="
M24.324902,97.909462 
	C23.766251,96.858170 23.534704,95.708534 23.104673,94.267693 
	C22.837065,86.621490 22.767939,79.266502 23.203831,71.440933 
	C26.169550,69.449890 28.735607,68.074036 31.066753,66.375732 
	C34.744831,63.696152 38.265167,60.800041 41.852276,57.995590 
	C41.949070,62.635227 41.851631,67.292770 42.276604,71.902153 
	C42.385468,73.082909 44.144768,74.111504 45.568886,75.295349 
	C45.680214,76.316437 45.641354,77.530205 45.014782,78.145187 
	C38.280540,84.754852 31.453577,91.270050 24.324902,97.909462 
z"/>
<path fill="#4C71CD" opacity="1.000000" stroke="none" 
	d="
M307.988129,30.289778 
	C315.580139,34.310093 317.902954,41.403164 318.816223,49.914368 
	C317.187805,53.152679 315.733704,55.663788 314.339600,58.207779 
	C313.175659,60.331787 312.082031,62.494305 310.957275,64.639763 
	C310.793274,64.663925 310.630005,64.702469 310.465271,64.710205 
	C300.388214,65.183899 300.665314,65.158661 299.780090,55.349148 
	C299.456177,51.760170 297.471954,48.321026 296.304077,44.271667 
	C300.238068,39.249798 304.113098,34.769791 307.988129,30.289778 
z"/>
<path fill="#57B2D4" opacity="1.000000" stroke="none" 
	d="
M122.517677,75.295868 
	C120.759987,78.310127 118.469139,81.198120 116.344711,84.203735 
	C114.788719,86.405144 113.451248,88.761009 111.998505,91.408394 
	C102.293785,91.817101 92.606918,91.865448 82.501541,91.497238 
	C84.408775,88.200386 86.794205,85.365685 89.041077,82.425117 
	C90.782150,80.146500 92.350006,77.735535 93.994858,75.383400 
	C103.348526,75.328941 112.702202,75.274483 122.517677,75.295868 
z"/>
<path fill="#4652C7" opacity="1.000000" stroke="none" 
	d="
M287.395508,144.704742 
	C287.667450,142.985992 287.915466,140.890411 289.085815,139.706802 
	C297.744019,130.950226 306.555389,122.343727 315.407227,113.781670 
	C316.559082,112.667519 318.216705,112.076286 319.998291,111.178207 
	C319.175293,132.203018 310.032349,141.648926 287.395508,144.704742 
z"/>
<path fill="#4D7DCC" opacity="1.000000" stroke="none" 
	d="
M307.687866,30.077129 
	C304.113098,34.769791 300.238068,39.249798 296.122070,43.978851 
	C288.539825,43.149300 281.198578,42.070709 273.532410,40.602283 
	C275.197815,37.853539 277.313080,35.587078 279.145477,33.111282 
	C281.228607,30.296701 283.058960,27.295044 284.999176,24.374697 
	C292.461975,26.204620 299.924774,28.034550 307.687866,30.077129 
z"/>
<path fill="#54A1D2" opacity="1.000000" stroke="none" 
	d="
M131.440613,91.842468 
	C131.812897,90.205208 132.313766,88.334007 133.491791,87.119789 
	C140.266464,80.137039 147.160828,73.268181 154.123779,66.472572 
	C155.237503,65.385620 156.902054,64.863052 158.669449,64.038841 
	C159.092422,70.027153 159.157913,76.056190 158.738403,82.556404 
	C155.796951,84.557098 153.240875,85.949707 150.906921,87.647614 
	C147.228729,90.323433 143.699814,93.204475 140.107712,95.998634 
	C139.960831,89.413055 134.868179,92.782494 131.440613,91.842468 
z"/>
<path fill="#4E84CA" opacity="1.000000" stroke="none" 
	d="
M284.541687,24.276976 
	C283.058960,27.295044 281.228607,30.296701 279.145477,33.111282 
	C277.313080,35.587078 275.197815,37.853539 273.102173,40.530228 
	C265.968506,40.870541 258.940125,40.893078 251.490631,40.491287 
	C252.738861,37.522045 254.302856,34.899567 256.104584,32.452095 
	C258.294769,29.476915 260.685333,26.649210 262.989197,23.757708 
	C270.020874,23.898220 277.052521,24.038734 284.541687,24.276976 
z"/>
<path fill="#5DD7D7" opacity="1.000000" stroke="none" 
	d="
M41.958565,57.537868 
	C38.265167,60.800041 34.744831,63.696152 31.066753,66.375732 
	C28.735607,68.074036 26.169550,69.449890 23.330835,70.987457 
	C22.868450,64.306320 22.784079,57.608082 23.205320,50.439922 
	C26.171316,48.449238 28.736736,47.072678 31.067940,45.374580 
	C34.745872,42.695484 38.266518,39.800457 41.853737,36.996826 
	C41.924110,43.691265 41.994484,50.385708 41.958565,57.537868 
z"/>
<path fill="#5294D1" opacity="1.000000" stroke="none" 
	d="
M140.084442,133.993073 
	C140.020935,127.300369 139.957428,120.607666 140.348145,113.412521 
	C144.335159,109.973274 147.795074,106.942047 151.429276,104.136612 
	C153.466202,102.564217 155.791702,101.365654 157.990417,100.467148 
	C157.996109,102.431061 157.813278,103.954033 158.030823,105.417496 
	C159.530136,115.502907 156.693970,123.689400 147.849167,129.372910 
	C147.174561,129.806396 146.828476,130.786896 146.138596,131.154037 
	C144.173477,132.199829 142.109512,133.059921 140.084442,133.993073 
z"/>
<path fill="#4E89C9" opacity="1.000000" stroke="none" 
	d="
M139.976868,134.435211 
	C142.109512,133.059921 144.173477,132.199829 146.138596,131.154037 
	C146.828476,130.786896 147.174561,129.806396 147.849167,129.372910 
	C156.693970,123.689400 159.530136,115.502907 158.030823,105.417496 
	C157.813278,103.954033 157.996109,102.431061 157.993896,100.042526 
	C158.348373,96.761826 158.702667,94.374207 159.056961,91.986595 
	C159.056961,108.924202 159.056961,125.861816 159.056961,143.561493 
	C153.251404,143.561493 147.657822,143.666626 142.077530,143.441818 
	C141.290710,143.410126 140.089233,141.849304 139.918961,140.852814 
	C139.587769,138.914764 139.851791,136.875000 139.976868,134.435211 
z"/>
<path fill="#59BBD5" opacity="1.000000" stroke="none" 
	d="
M93.532974,75.301117 
	C92.350006,77.735535 90.782150,80.146500 89.041077,82.425117 
	C86.794205,85.365685 84.408775,88.200386 82.037918,91.421143 
	C74.967949,91.812424 67.943077,91.863235 60.454441,91.837677 
	C61.600761,89.400482 63.193714,87.027733 64.825317,84.681877 
	C66.831818,81.796989 68.870575,78.934525 70.940643,75.722885 
	C78.347618,75.328537 85.709351,75.273682 93.532974,75.301117 
z"/>
<path fill="#57AED3" opacity="1.000000" stroke="none" 
	d="
M159.125763,50.541916 
	C156.825363,52.356819 154.481064,53.524082 152.467041,55.110592 
	C148.478317,58.252621 144.671997,61.626202 140.440964,64.948372 
	C140.022690,58.632965 139.953735,52.273258 140.342514,45.412067 
	C144.452072,41.855453 147.983688,38.638115 151.802521,35.808388 
	C153.960037,34.209698 156.589859,33.248436 159.006958,32.000053 
	C159.081696,38.027977 159.156433,44.055904 159.125763,50.541916 
z"/>
<path fill="#4C6ECE" opacity="1.000000" stroke="none" 
	d="
M233.990402,145.762787 
	C227.606354,145.481567 221.222305,145.200333 214.460236,144.474365 
	C215.210754,142.309448 216.293793,140.557220 217.477341,138.875732 
	C219.956818,135.353073 222.489212,131.867630 224.999878,128.366898 
	C231.684875,128.418381 238.369888,128.469864 245.460693,128.949677 
	C243.828415,132.076996 241.748611,134.745728 239.764023,137.483490 
	C237.789673,140.207153 235.911026,143.000183 233.990402,145.762787 
z"/>
<path fill="#4A60CD" opacity="1.000000" stroke="none" 
	d="
M284.534790,128.003281 
	C283.053711,130.795410 281.188019,133.638138 279.131927,136.335754 
	C276.871643,139.301270 274.436157,142.133255 272.028870,145.358887 
	C265.961578,145.762970 259.942474,145.831604 253.476196,145.471756 
	C254.350067,142.864944 255.502563,140.559357 257.030029,138.536987 
	C259.564850,135.180923 262.340668,132.006943 265.014954,128.756256 
	C271.365387,128.500809 277.715820,128.245361 284.534790,128.003281 
z"/>
<path fill="#5FDED7" opacity="1.000000" stroke="none" 
	d="
M41.961624,36.547127 
	C38.266518,39.800457 34.745872,42.695484 31.067940,45.374580 
	C28.736736,47.072678 26.171316,48.449238 23.333078,49.986671 
	C22.955221,42.231491 22.955221,34.459637 22.955221,26.369061 
	C29.150948,26.369061 35.223946,26.369061 42.069515,26.369061 
	C42.069515,29.616478 42.069515,32.856953 41.961624,36.547127 
z"/>
<path fill="#4B66CE" opacity="1.000000" stroke="none" 
	d="
M264.558228,128.641754 
	C262.340668,132.006943 259.564850,135.180923 257.030029,138.536987 
	C255.502563,140.559357 254.350067,142.864944 253.012146,145.403046 
	C246.969971,145.809021 240.944733,145.855240 234.454956,145.832123 
	C235.911026,143.000183 237.789673,140.207153 239.764023,137.483490 
	C241.748611,134.745728 243.828415,132.076996 245.912857,129.064468 
	C252.006638,128.676361 258.054047,128.601791 264.558228,128.641754 
z"/>
<path fill="#518FD1" opacity="1.000000" stroke="none" 
	d="
M262.534332,23.642426 
	C260.685333,26.649210 258.294769,29.476915 256.104584,32.452095 
	C254.302856,34.899567 252.738861,37.522045 251.026306,40.416359 
	C244.964722,40.830318 238.946320,40.894878 232.553314,40.566063 
	C234.959106,36.774864 237.849396,33.459217 240.475708,29.946228 
	C241.890121,28.054285 242.852234,25.824196 244.018417,23.746674 
	C250.038773,23.673494 256.059113,23.600319 262.534332,23.642426 
z"/>
<path fill="#4A60CD" opacity="1.000000" stroke="none" 
	d="
M319.564636,79.322525 
	C323.435303,92.833000 315.037598,100.622948 306.215027,108.144310 
	C305.148010,109.053970 303.570129,109.364410 301.824646,109.985489 
	C301.472809,108.642624 301.525421,107.266838 301.904541,105.153534 
	C302.141510,101.553963 302.051971,98.691933 302.013031,95.485214 
	C304.622040,92.014053 307.250366,88.941399 309.713501,85.741539 
	C311.269928,83.719566 312.579651,81.507668 314.000061,79.380951 
	C315.714478,79.332512 317.428925,79.284081 319.564636,79.322525 
z"/>
<path fill="#4D75CD" opacity="1.000000" stroke="none" 
	d="
M224.614471,128.284515 
	C222.489212,131.867630 219.956818,135.353073 217.477341,138.875732 
	C216.293793,140.557220 215.210754,142.309448 214.039062,144.371704 
	C208.109177,143.073944 202.222443,141.434097 196.283218,139.247833 
	C200.187912,134.449432 204.145096,130.197464 208.102280,125.945511 
	C213.477875,126.697716 218.853455,127.449913 224.614471,128.284515 
z"/>
<path fill="#4E84CC" opacity="1.000000" stroke="none" 
	d="
M197.045242,95.978287 
	C197.812271,102.002701 198.579285,108.027122 199.010605,114.572235 
	C196.080139,117.266121 193.576462,119.562141 190.862549,121.574669 
	C188.583115,123.264999 186.058731,124.625008 183.642792,126.131256 
	C182.209839,121.345665 180.776901,116.560074 179.727448,111.365906 
	C185.755692,105.964317 191.400467,100.971298 197.045242,95.978287 
z"/>
<path fill="#539BD2" opacity="1.000000" stroke="none" 
	d="
M159.150223,91.544312 
	C158.702667,94.374207 158.348373,96.761826 157.990631,99.574051 
	C155.791702,101.365654 153.466202,102.564217 151.429276,104.136612 
	C147.795074,106.942047 144.335159,109.973274 140.453949,112.954208 
	C140.035416,107.636604 139.965286,102.274879 140.001434,96.455902 
	C143.699814,93.204475 147.228729,90.323433 150.906921,87.647614 
	C153.240875,85.949707 155.796951,84.557098 158.628754,83.013733 
	C159.083893,85.700600 159.163681,88.401314 159.150223,91.544312 
z"/>
<path fill="#5293D1" opacity="1.000000" stroke="none" 
	d="
M177.889771,79.364433 
	C180.072830,77.760422 182.361115,76.773514 184.175232,75.229507 
	C188.324219,71.698273 192.241409,67.894684 196.571655,64.100174 
	C196.966171,66.032082 197.041763,68.065536 196.977539,70.718094 
	C196.908386,71.893631 196.979050,72.450081 197.049683,73.006523 
	C197.062332,75.708298 197.074966,78.410065 196.640442,81.594055 
	C192.670441,85.010239 189.251602,88.083084 185.586929,90.827675 
	C183.276108,92.558334 180.597565,93.798012 178.083984,95.257942 
	C177.978149,92.786148 177.872299,90.314354 178.040588,87.141457 
	C178.191940,84.955101 178.069138,83.469841 177.946350,81.984589 
	C177.890793,81.232574 177.835236,80.480568 177.889771,79.364433 
z"/>
<path fill="#508BCD" opacity="1.000000" stroke="none" 
	d="
M178.001648,95.629272 
	C180.597565,93.798012 183.276108,92.558334 185.586929,90.827675 
	C189.251602,88.083084 192.670441,85.010239 196.541855,82.034500 
	C197.001663,86.350510 197.112915,90.708290 197.134705,95.522186 
	C191.400467,100.971298 185.755692,105.964317 179.762955,110.976273 
	C178.916412,105.997002 178.417862,100.998802 178.001648,95.629272 
z"/>
<path fill="#4D7DCC" opacity="1.000000" stroke="none" 
	d="
M183.705933,126.486000 
	C186.058731,124.625008 188.583115,123.264999 190.862549,121.574669 
	C193.576462,119.562141 196.080139,117.266121 199.029999,114.994629 
	C201.623367,118.803131 202.126129,124.058113 207.846298,125.702248 
	C204.145096,130.197464 200.187912,134.449432 196.042801,139.001221 
	C190.032486,136.887497 186.487350,132.265106 183.705933,126.486000 
z"/>
<path fill="#4C6CCE" opacity="1.000000" stroke="none" 
	d="
M282.999023,79.379814 
	C287.688721,79.329720 292.378387,79.279633 297.510986,79.656120 
	C296.376984,82.480698 294.852844,84.915543 293.209778,87.267319 
	C291.190338,90.157829 289.071655,92.979004 286.995911,95.830170 
	C281.972229,95.872826 276.948517,95.915489 271.565735,95.574219 
	C273.536530,92.295586 275.939758,89.456055 278.172577,86.488312 
	C279.892426,84.202354 281.398102,81.755264 282.999023,79.379814 
z"/>
<path fill="#4D72CF" opacity="1.000000" stroke="none" 
	d="
M282.537659,79.303452 
	C281.398102,81.755264 279.892426,84.202354 278.172577,86.488312 
	C275.939758,89.456055 273.536530,92.295586 271.102600,95.510384 
	C266.306305,95.873161 261.614044,95.915855 256.504028,95.549881 
	C258.529388,92.121956 261.112213,89.202484 263.365723,86.047768 
	C264.826019,84.003494 265.805237,81.615593 267.000000,79.381660 
	C272.025421,79.330139 277.050842,79.278618 282.537659,79.303452 
z"/>
<path fill="#4B66CE" opacity="1.000000" stroke="none" 
	d="
M287.457947,95.893486 
	C289.071655,92.979004 291.190338,90.157829 293.209778,87.267319 
	C294.852844,84.915543 296.376984,82.480698 297.970764,79.732521 
	C303.017365,79.331558 308.047119,79.280769 313.538452,79.305466 
	C312.579651,81.507668 311.269928,83.719566 309.713501,85.741539 
	C307.250366,88.941399 304.622040,92.014053 301.799500,95.515930 
	C301.535400,95.891319 301.109528,95.961037 301.109528,95.961029 
	C296.713013,95.959625 292.316528,95.958221 287.457947,95.893486 
z"/>
<path fill="#4D77CF" opacity="1.000000" stroke="none" 
	d="
M266.537354,79.304428 
	C265.805237,81.615593 264.826019,84.003494 263.365723,86.047768 
	C261.112213,89.202484 258.529388,92.121956 256.041565,95.485764 
	C253.956909,95.873459 251.916962,95.916580 249.302155,95.742447 
	C248.534271,95.310760 248.311462,95.133827 248.058853,94.994392 
	C248.000687,91.056046 248.038666,87.113136 247.852509,83.180847 
	C247.715073,80.277748 248.726013,78.994110 251.790894,79.118721 
	C256.545776,79.312042 261.312805,79.206200 266.537354,79.304428 
z"/>
<path fill="#5294D0" opacity="1.000000" stroke="none" 
	d="
M243.581238,23.626162 
	C242.852234,25.824196 241.890121,28.054285 240.475708,29.946228 
	C237.849396,33.459217 234.959106,36.774864 232.088821,40.502419 
	C227.660706,41.016602 223.322510,41.201050 218.530029,41.301689 
	C220.763077,37.932781 223.503448,34.689201 226.118759,31.347742 
	C227.814957,29.180561 229.328629,26.870501 230.963226,24.262001 
	C235.049606,23.768248 239.096832,23.636948 243.581238,23.626162 
z"/>
<path fill="#57B4D4" opacity="1.000000" stroke="none" 
	d="
M159.119446,31.564634 
	C156.589859,33.248436 153.960037,34.209698 151.802521,35.808388 
	C147.983688,38.638115 144.452072,41.855453 140.451584,44.954605 
	C140.102921,38.909225 140.102921,32.819817 140.102921,26.393200 
	C146.364746,26.393200 152.412979,26.393200 159.000916,26.393200 
	C159.078552,27.984636 159.155258,29.556925 159.119446,31.564634 
z"/>
<path fill="#4765C2" opacity="1.000000" stroke="none" 
	d="
M311.402649,64.723076 
	C312.082031,62.494305 313.175659,60.331787 314.339600,58.207779 
	C315.733704,55.663788 317.187805,53.152679 318.790558,50.319412 
	C319.285919,52.267796 319.782043,54.515289 319.895874,56.781979 
	C320.307922,64.987480 320.259460,64.989914 311.402649,64.723076 
z"/>
<path fill="#4658C5" opacity="1.000000" stroke="none" 
	d="
M301.264282,96.372238 
	C301.109528,95.961037 301.535400,95.891319 301.748901,95.860611 
	C302.051971,98.691933 302.141510,101.553963 302.018555,104.754761 
	C301.677063,102.323502 301.548065,99.553474 301.264282,96.372238 
z"/>
<path fill="#508BCD" opacity="1.000000" stroke="none" 
	d="
M177.827515,82.282616 
	C178.069138,83.469841 178.191940,84.955101 178.134933,86.728394 
	C177.872986,85.537834 177.790817,84.059235 177.827515,82.282616 
z"/>
<path fill="#4E84CC" opacity="1.000000" stroke="none" 
	d="
M197.168427,72.824524 
	C196.979050,72.450081 196.908386,71.893631 196.970718,71.154694 
	C197.164841,71.528969 197.225998,72.085747 197.168427,72.824524 
z"/>
<path fill="#4166AF" opacity="1.000000" stroke="none" 
	d="
M248.074158,95.252106 
	C248.311462,95.133827 248.534271,95.310760 248.867920,95.686844 
	C248.702179,95.735596 248.395813,95.622704 248.074158,95.252106 
z"/>
</svg>